<svg xmlns="http://www.w3.org/2000/svg" xmlns:xlink="http://www.w3.org/1999/xlink" contentStyleType="text/css" data-diagram-type="CLASS" height="565px" preserveAspectRatio="none" style="width:646px;height:565px;" version="1.1" viewBox="0 0 646 565" width="646px" zoomAndPan="magnify"><title>Bridge Pattern Structure</title><defs/><g><g class="title" data-source-line="17"><text fill="#000000" font-family="Verdana" font-size="22" font-weight="bold" lengthAdjust="spacing" textLength="308.1934" x="164.6815" y="35.4209">Bridge Pattern Structure</text></g><!--class Abs--><g class="entity" data-entity="Abs" data-source-line="19" data-uid="ent0002" id="entity_Abs"><rect fill="#FFFFFF" height="60.2969" rx="2.5" ry="2.5" style="stroke:#444444;stroke-width:1;" width="113.0649" x="250.16" y="223.4094"/><ellipse cx="263.16" cy="237.4094" fill="#FFFFFF" rx="9" ry="9" style="stroke:#000000;stroke-width:1;"/><path d="M263.2694,232.7531 L262.1131,237.8313 L264.4412,237.8313 L263.2694,232.7531 Z M261.785,230.5188 L264.7694,230.5188 L268.1287,242.9094 L265.6756,242.9094 L264.91,239.8469 L261.6287,239.8469 L260.8787,242.9094 L258.4412,242.9094 L261.785,230.5188 Z " fill="#000000"/><text fill="#000000" font-family="Helvetica" font-size="13" font-style="italic" font-weight="bold" lengthAdjust="spacing" textLength="85.0649" x="275.16" y="241.9099">Abstraction</text><line style="stroke:#444444;stroke-width:1;" x1="251.16" x2="362.2249" y1="251.4094" y2="251.4094"/><line style="stroke:#444444;stroke-width:1;" x1="251.16" x2="362.2249" y1="259.4094" y2="259.4094"/><ellipse cx="261.16" cy="273.0578" fill="#FFFFFF" rx="3" ry="3" style="stroke:#000000;stroke-width:1;"/><text fill="#000000" font-family="Verdana" font-size="14" lengthAdjust="spacing" textLength="78.1416" x="268.16" y="276.4045">operation()</text></g><g class="entity" data-entity="GMN3" data-source-line="22" data-uid="ent0004" id="entity_GMN3"><path d="M398.69,233.4194 L398.69,249.5594 L363.64,253.5594 L398.69,257.5594 L398.69,273.685 A0,0 0 0 0 398.69,273.685 L510.6901,273.685 A0,0 0 0 0 510.6901,273.685 L510.6901,243.4194 L500.6901,233.4194 L398.69,233.4194 A0,0 0 0 0 398.69,233.4194" fill="#FFF8DC" style="stroke:#D3D3D3;stroke-width:1;"/><path d="M500.6901,233.4194 L500.6901,243.4194 L510.6901,243.4194 L500.6901,233.4194" fill="#FFF8DC" style="stroke:#D3D3D3;stroke-width:1;"/><text fill="#000000" font-family="Verdana" font-size="13" lengthAdjust="spacing" textLength="78.0001" x="404.69" y="250.4863">&#39640;&#23618;&#25277;&#35937;&#25509;&#21475;</text><text fill="#000000" font-family="Verdana" font-size="13" lengthAdjust="spacing" textLength="91.0001" x="404.69" y="265.6191">&#25345;&#26377;&#23454;&#29616;&#23618;&#24341;&#29992;</text></g><!--class RefAbs--><g class="entity" data-entity="RefAbs" data-source-line="24" data-uid="ent0006" id="entity_RefAbs"><rect fill="#FFFFFF" height="60.2969" rx="2.5" ry="2.5" style="stroke:#444444;stroke-width:1;" width="169.3813" x="12" y="360.7094"/><ellipse cx="25" cy="374.7094" fill="#FFFFFF" rx="9" ry="9" style="stroke:#000000;stroke-width:1;"/><path d="M27.9688,380.35 Q27.3906,380.6469 26.75,380.7875 Q26.1094,380.9437 25.4063,380.9437 Q22.9063,380.9437 21.5781,379.3031 Q20.2656,377.6469 20.2656,374.5219 Q20.2656,371.3969 21.5781,369.7406 Q22.9063,368.0844 25.4063,368.0844 Q26.1094,368.0844 26.75,368.2406 Q27.4063,368.3969 27.9688,368.6937 L27.9688,371.4125 Q27.3438,370.8344 26.75,370.5687 Q26.1563,370.2875 25.5313,370.2875 Q24.1875,370.2875 23.5,371.3656 Q22.8125,372.4281 22.8125,374.5219 Q22.8125,376.6156 23.5,377.6937 Q24.1875,378.7562 25.5313,378.7562 Q26.1563,378.7562 26.75,378.4906 Q27.3438,378.2094 27.9688,377.6312 L27.9688,380.35 Z " fill="#000000"/><text fill="#000000" font-family="Helvetica" font-size="13" font-weight="bold" lengthAdjust="spacing" textLength="141.3813" x="37" y="379.2099">RefinedAbstraction</text><line style="stroke:#444444;stroke-width:1;" x1="13" x2="180.3813" y1="388.7094" y2="388.7094"/><line style="stroke:#444444;stroke-width:1;" x1="13" x2="180.3813" y1="396.7094" y2="396.7094"/><ellipse cx="23" cy="410.3578" fill="#FFFFFF" rx="3" ry="3" style="stroke:#000000;stroke-width:1;"/><text fill="#000000" font-family="Verdana" font-size="14" lengthAdjust="spacing" textLength="78.1416" x="30" y="413.7045">operation()</text></g><g class="entity" data-entity="GMN7" data-source-line="27" data-uid="ent0008" id="entity_GMN7"><path d="M216.69,378.2894 L216.69,386.8494 L181.6,390.8494 L216.69,394.8494 L216.69,403.4222 A0,0 0 0 0 216.69,403.4222 L328.6901,403.4222 A0,0 0 0 0 328.6901,403.4222 L328.6901,388.2894 L318.6901,378.2894 L216.69,378.2894 A0,0 0 0 0 216.69,378.2894" fill="#FFF8DC" style="stroke:#D3D3D3;stroke-width:1;"/><path d="M318.6901,378.2894 L318.6901,388.2894 L328.6901,388.2894 L318.6901,378.2894" fill="#FFF8DC" style="stroke:#D3D3D3;stroke-width:1;"/><text fill="#000000" font-family="Verdana" font-size="13" lengthAdjust="spacing" textLength="91.0001" x="222.69" y="395.3563">&#25193;&#23637;&#30340;&#25277;&#35937;&#23454;&#29616;</text></g><!--class Impl--><g class="entity" data-entity="Impl" data-source-line="29" data-uid="ent0010" id="entity_Impl"><rect fill="#FFFFFF" height="60.2969" rx="2.5" ry="2.5" style="stroke:#444444;stroke-width:1;" width="132.6846" x="363.35" y="360.7094"/><ellipse cx="381.097" cy="374.7094" fill="#FFFFFF" rx="9" ry="9" style="stroke:#000000;stroke-width:1;"/><path d="M377.0188,370.475 L377.0188,368.3187 L384.4095,368.3187 L384.4095,370.475 L381.9407,370.475 L381.9407,378.5531 L384.4095,378.5531 L384.4095,380.7094 L377.0188,380.7094 L377.0188,378.5531 L379.4876,378.5531 L379.4876,370.475 L377.0188,370.475 Z " fill="#000000"/><text fill="#000000" font-family="Helvetica" font-size="13" font-style="italic" font-weight="bold" lengthAdjust="spacing" textLength="94.1357" x="394.1519" y="379.2099">Implementor</text><line style="stroke:#444444;stroke-width:1;" x1="364.35" x2="495.0346" y1="388.7094" y2="388.7094"/><line style="stroke:#444444;stroke-width:1;" x1="364.35" x2="495.0346" y1="396.7094" y2="396.7094"/><ellipse cx="374.35" cy="410.3578" fill="#FFFFFF" rx="3" ry="3" style="stroke:#000000;stroke-width:1;"/><text fill="#000000" font-family="Verdana" font-size="14" lengthAdjust="spacing" textLength="108.6846" x="381.35" y="413.7045">operationImpl()</text></g><g class="entity" data-entity="GMN11" data-source-line="32" data-uid="ent0012" id="entity_GMN11"><path d="M531.19,370.7194 L531.19,386.8494 L496.34,390.8494 L531.19,394.8494 L531.19,410.985 A0,0 0 0 0 531.19,410.985 L630.1901,410.985 A0,0 0 0 0 630.1901,410.985 L630.1901,380.7194 L620.1901,370.7194 L531.19,370.7194 A0,0 0 0 0 531.19,370.7194" fill="#FFF8DC" style="stroke:#D3D3D3;stroke-width:1;"/><path d="M620.1901,370.7194 L620.1901,380.7194 L630.1901,380.7194 L620.1901,370.7194" fill="#FFF8DC" style="stroke:#D3D3D3;stroke-width:1;"/><text fill="#000000" font-family="Verdana" font-size="13" lengthAdjust="spacing" textLength="65.0001" x="537.19" y="387.7863">&#23454;&#29616;&#23618;&#25509;&#21475;</text><text fill="#000000" font-family="Verdana" font-size="13" lengthAdjust="spacing" textLength="78.0001" x="537.19" y="402.9191">&#23450;&#20041;&#24213;&#23618;&#25805;&#20316;</text></g><!--class CImplA--><g class="entity" data-entity="CImplA" data-source-line="34" data-uid="ent0014" id="entity_CImplA"><rect fill="#FFFFFF" height="60.2969" rx="2.5" ry="2.5" style="stroke:#444444;stroke-width:1;" width="197.8887" x="208.75" y="497.9994"/><ellipse cx="221.75" cy="511.9994" fill="#FFFFFF" rx="9" ry="9" style="stroke:#000000;stroke-width:1;"/><path d="M224.7188,517.64 Q224.1406,517.9369 223.5,518.0775 Q222.8594,518.2338 222.1563,518.2338 Q219.6563,518.2338 218.3281,516.5931 Q217.0156,514.9369 217.0156,511.8119 Q217.0156,508.6869 218.3281,507.0306 Q219.6563,505.3744 222.1563,505.3744 Q222.8594,505.3744 223.5,505.5306 Q224.1563,505.6869 224.7188,505.9838 L224.7188,508.7025 Q224.0938,508.1244 223.5,507.8588 Q222.9063,507.5775 222.2813,507.5775 Q220.9375,507.5775 220.25,508.6556 Q219.5625,509.7181 219.5625,511.8119 Q219.5625,513.9056 220.25,514.9838 Q220.9375,516.0463 222.2813,516.0463 Q222.9063,516.0463 223.5,515.7806 Q224.0938,515.4994 224.7188,514.9213 L224.7188,517.64 Z " fill="#000000"/><text fill="#000000" font-family="Helvetica" font-size="13" font-weight="bold" lengthAdjust="spacing" textLength="169.8887" x="233.75" y="516.4999">ConcreteImplementorA</text><line style="stroke:#444444;stroke-width:1;" x1="209.75" x2="405.6387" y1="525.9994" y2="525.9994"/><line style="stroke:#444444;stroke-width:1;" x1="209.75" x2="405.6387" y1="533.9994" y2="533.9994"/><ellipse cx="219.75" cy="547.6478" fill="#FFFFFF" rx="3" ry="3" style="stroke:#000000;stroke-width:1;"/><text fill="#000000" font-family="Verdana" font-size="14" lengthAdjust="spacing" textLength="108.6846" x="226.75" y="550.9945">operationImpl()</text></g><!--class CImplB--><g class="entity" data-entity="CImplB" data-source-line="38" data-uid="ent0015" id="entity_CImplB"><rect fill="#FFFFFF" height="60.2969" rx="2.5" ry="2.5" style="stroke:#444444;stroke-width:1;" width="197.7363" x="441.82" y="497.9994"/><ellipse cx="454.82" cy="511.9994" fill="#FFFFFF" rx="9" ry="9" style="stroke:#000000;stroke-width:1;"/><path d="M457.7888,517.64 Q457.2106,517.9369 456.57,518.0775 Q455.9294,518.2338 455.2263,518.2338 Q452.7263,518.2338 451.3981,516.5931 Q450.0856,514.9369 450.0856,511.8119 Q450.0856,508.6869 451.3981,507.0306 Q452.7263,505.3744 455.2263,505.3744 Q455.9294,505.3744 456.57,505.5306 Q457.2263,505.6869 457.7888,505.9838 L457.7888,508.7025 Q457.1638,508.1244 456.57,507.8588 Q455.9763,507.5775 455.3513,507.5775 Q454.0075,507.5775 453.32,508.6556 Q452.6325,509.7181 452.6325,511.8119 Q452.6325,513.9056 453.32,514.9838 Q454.0075,516.0463 455.3513,516.0463 Q455.9763,516.0463 456.57,515.7806 Q457.1638,515.4994 457.7888,514.9213 L457.7888,517.64 Z " fill="#000000"/><text fill="#000000" font-family="Helvetica" font-size="13" font-weight="bold" lengthAdjust="spacing" textLength="169.7363" x="466.82" y="516.4999">ConcreteImplementorB</text><line style="stroke:#444444;stroke-width:1;" x1="442.82" x2="638.5563" y1="525.9994" y2="525.9994"/><line style="stroke:#444444;stroke-width:1;" x1="442.82" x2="638.5563" y1="533.9994" y2="533.9994"/><ellipse cx="452.82" cy="547.6478" fill="#FFFFFF" rx="3" ry="3" style="stroke:#000000;stroke-width:1;"/><text fill="#000000" font-family="Verdana" font-size="14" lengthAdjust="spacing" textLength="108.6846" x="459.82" y="550.9945">operationImpl()</text></g><g class="entity" data-entity="GMN24" data-source-line="55" data-uid="ent0025" id="entity_GMN24"><path d="M101.7,57.6094 L101.7,162.4063 A0,0 0 0 0 101.7,162.4063 L302.69,162.4063 L306.69,223.1194 L310.69,162.4063 L511.6795,162.4063 A0,0 0 0 0 511.6795,162.4063 L511.6795,67.6094 L501.6795,57.6094 L101.7,57.6094 A0,0 0 0 0 101.7,57.6094" fill="#ADD8E6" style="stroke:#D3D3D3;stroke-width:1;"/><path d="M501.6795,57.6094 L501.6795,67.6094 L511.6795,67.6094 L501.6795,57.6094" fill="#ADD8E6" style="stroke:#D3D3D3;stroke-width:1;"/><text fill="#000000" font-family="Verdana" font-size="13" font-weight="bold" lengthAdjust="spacing" textLength="78.0001" x="107.7" y="74.6763">&#31034;&#20363;&#23545;&#24212;&#20851;&#31995;</text><text fill="#000000" font-family="Verdana" font-size="13" lengthAdjust="spacing" textLength="134.2402" x="107.7" y="104.9419">Abstraction &#8594; Shape</text><text fill="#000000" font-family="Verdana" font-size="13" lengthAdjust="spacing" textLength="180.0322" x="107.7" y="120.0747">RefinedAbstraction &#8594; Circle</text><text fill="#000000" font-family="Verdana" font-size="13" lengthAdjust="spacing" textLength="163.0205" x="107.7" y="135.2075">Implementor &#8594; Renderer</text><text fill="#000000" font-family="Verdana" font-size="13" lengthAdjust="spacing" textLength="382.9795" x="107.7" y="150.3403">ConcreteImplementor &#8594; OpenGLRenderer/VulkanRenderer</text><line style="stroke:#D3D3D3;stroke-width:1;" x1="102.7" x2="294.9625" y1="85.3086" y2="85.3086"/><text fill="#000000" font-family="Verdana" font-size="13" lengthAdjust="spacing" text-decoration="line-through" textLength="4.6909" x="294.9625" y="89.3091">-</text><text fill="#000000" font-family="Verdana" font-size="13" lengthAdjust="spacing" text-decoration="line-through" textLength="4.6909" x="299.6534" y="89.3091">-</text><text fill="#000000" font-family="Verdana" font-size="13" lengthAdjust="spacing" textLength="14.0728" x="304.3443" y="89.3091">---</text><line style="stroke:#D3D3D3;stroke-width:1;" x1="318.417" x2="510.6795" y1="85.3086" y2="85.3086"/></g><!--reverse link Abs to RefAbs--><g class="link" data-entity-1="Abs" data-entity-2="RefAbs" data-source-line="42" data-uid="lnk16" id="link_Abs_RefAbs"><path codeLine="42" d="M245.7304,293.8311 C210.6204,316.4611 177.51,337.7794 142.42,360.3894" fill="none" id="Abs-backto-RefAbs" style="stroke:#444444;stroke-width:1;"/><polygon fill="none" points="260.86,284.0794,242.4799,288.7879,248.981,298.8743,260.86,284.0794" style="stroke:#444444;stroke-width:1;"/></g><!--link RefAbs to Abs--><g class="link" data-entity-1="RefAbs" data-entity-2="Abs" data-source-line="49" data-uid="lnk21" id="link_RefAbs_Abs"><path codeLine="49" d="M167.43,360.2994 C185.35,351.6994 204.18,341.6394 220.69,330.7094 C241.14,317.1594 248.747,311.4642 264.687,296.3042" fill="none" id="RefAbs-to-Abs" style="stroke:#444444;stroke-width:1;stroke-dasharray:7,7;"/><polygon fill="none" points="277.73,283.8994,260.552,291.9565,268.8219,300.6519,277.73,283.8994" style="stroke:#444444;stroke-width:1;"/><text fill="#000000" font-family="Helvetica" font-size="13" lengthAdjust="spacing" textLength="52.0508" x="244.69" y="326.7763">extends</text></g><!--link Abs to Impl--><g class="link" data-entity-1="Abs" data-entity-2="Impl" data-source-line="43" data-uid="lnk17" id="link_Abs_Impl"><path codeLine="43" d="M341.4527,292.7981 C362.0827,315.4881 378.4039,333.4398 399.0139,356.1098" fill="none" id="Abs-Impl" style="stroke:#444444;stroke-width:1;"/><polygon fill="none" points="333.38,283.9194,334.4567,291.0496,341.4527,292.7981,340.3759,285.6679,333.38,283.9194" style="stroke:#444444;stroke-width:1;"/><polygon fill="#444444" points="403.05,360.5494,399.9555,351.1993,399.6866,356.8497,394.0361,356.5808,403.05,360.5494" style="stroke:#444444;stroke-width:1;"/></g><!--link Abs to Impl--><g class="link" data-entity-1="Abs" data-entity-2="Impl" data-source-line="48" data-uid="lnk20" id="link_Abs_Impl"><path codeLine="48" d="M349.37,284.1394 C360.56,292.9494 372.15,303.1094 381.69,313.7094 C394.34,327.7594 402.7615,340.3366 411.2915,355.1866" fill="none" id="Abs-to-Impl" style="stroke:#444444;stroke-width:1;"/><polygon fill="#444444" points="414.28,360.3894,413.2657,350.5929,411.7896,356.0537,406.3287,354.5776,414.28,360.3894" style="stroke:#444444;stroke-width:1;"/><text fill="#000000" font-family="Helvetica" font-size="13" lengthAdjust="spacing" textLength="81.1294" x="395.69" y="326.7763">delegates to</text></g><!--reverse link Impl to CImplA--><g class="link" data-entity-1="Impl" data-entity-2="CImplA" data-source-line="44" data-uid="lnk18" id="link_Impl_CImplA"><path codeLine="44" d="M356.7779,431.2762 C344.3379,439.5962 347.09,439.5594 337.69,450.9994 C326.6,464.5094 319.24,482.6194 314.59,497.7894" fill="none" id="Impl-backto-CImplA" style="stroke:#444444;stroke-width:1;stroke-dasharray:7,7;"/><polygon fill="none" points="371.74,421.2694,353.4423,426.2888,360.1135,436.2635,371.74,421.2694" style="stroke:#444444;stroke-width:1;"/></g><!--link CImplA to Impl--><g class="link" data-entity-1="CImplA" data-entity-2="Impl" data-source-line="50" data-uid="lnk22" id="link_CImplA_Impl"><path codeLine="50" d="M334.11,497.8494 C354.56,475.1694 370.7089,457.2799 391.1689,434.5799" fill="none" id="CImplA-to-Impl" style="stroke:#444444;stroke-width:1;stroke-dasharray:7,7;"/><polygon fill="none" points="403.22,421.2094,386.712,430.5628,395.6257,438.5969,403.22,421.2094" style="stroke:#444444;stroke-width:1;"/><text fill="#000000" font-family="Helvetica" font-size="13" lengthAdjust="spacing" textLength="76.9082" x="377.69" y="464.0663">implements</text></g><!--reverse link Impl to CImplB--><g class="link" data-entity-1="Impl" data-entity-2="CImplB" data-source-line="45" data-uid="lnk19" id="link_Impl_CImplB"><path codeLine="45" d="M465.192,435.1294 C483.802,457.8294 498.05,475.1694 516.65,497.8494" fill="none" id="Impl-backto-CImplB" style="stroke:#444444;stroke-width:1;stroke-dasharray:7,7;"/><polygon fill="none" points="453.78,421.2094,460.552,438.9334,469.832,431.3254,453.78,421.2094" style="stroke:#444444;stroke-width:1;"/></g><!--link CImplB to Impl--><g class="link" data-entity-1="CImplB" data-entity-2="Impl" data-source-line="51" data-uid="lnk23" id="link_CImplB_Impl"><path codeLine="51" d="M528.53,497.6794 C521.61,482.8294 512.05,465.0494 500.69,450.9994 C492.02,440.2694 495.003,441.5847 484.403,432.7747" fill="none" id="CImplB-to-Impl" style="stroke:#444444;stroke-width:1;stroke-dasharray:7,7;"/><polygon fill="none" points="470.56,421.2694,480.5678,437.389,488.2381,428.1604,470.56,421.2694" style="stroke:#444444;stroke-width:1;"/><text fill="#000000" font-family="Helvetica" font-size="13" lengthAdjust="spacing" textLength="76.9082" x="511.69" y="464.0663">implements</text></g><!--SRC=[ZLFVQnD147xVls9C7rGagL8V98H0xagj85KQyCcNpTqqENBPFVOs_gmFYZz8r0hQW9HI51KgGhNqGPfQ-xz8xjB-5-vkxjAQjCNTXxkTRsU- -MPcpyWQDX02dtgCaB3kiO0Ase271C2YJhqgU9EvDlUv02ae2nMCJ2gq90I_Em0cBfkbZBPFmz3YmaLnB3IBL46ZWITcBkezz1-3pLBm79Tu77fbsaxHezpJKtgdkSvm9kUe4ZkB_XsKdaDJmjEHihpl8rIux_vZzHuWN9eYZmYHdbGNBE6vLOIRL4eK3CfID1tP54W8hOIgT8w4J2dvypZB00r1dKsbBm0FK51jFtTUXMHA2GYlMfDvEFZsFjfy4hTtzpS_najVeZUVRhFurUDujHLjhFMNVYWm-jNfBwyJukZa83EF2nv3TvHCcV-7BsvzZJOx_PMd0ye12I4UKx8Mg8EGkTO8V3KqJ79X0klpQ5Xj6mizJ3ZL4MsizBPRKRUZRUzUztPNXo9ipXo14e-GbGoRhIsb4_bEyRSE_QsJ_NMD2elPR58lS-RPRD7894PhOJ6NI_8ODLY4d8NuvqxK_h2_jwPqnblh1o_Q9aeQ1FAGST77AfKOWkGPahGcbriicfd80zwJoDoG96eDalXwgQ84jKv2XvdqTlVKVFG_Ttk_NoRvcBP87W1VC8mJlcvHnM-YgakXKXnSZhvlHztbwDbMVskdC5afAYmxklJpEfmq-FFyBPHhDD1nnWVHmBOd75_ZHtfZW7ab6GKA_Sx6ssUkt0YGNRsUNfoyrVJhb0tzr1Uqihy0]--></g></svg>